<?xml version="1.0" encoding="UTF-8"?>
<svg width="1024px" height="1024px" viewBox="0 0 1024 1024" version="1.1" xmlns="http://www.w3.org/2000/svg" xmlns:xlink="http://www.w3.org/1999/xlink">
    <!-- Generator: Sketch 51.3 (57544) - http://www.bohemiancoding.com/sketch -->
    <title>Artboard Copy</title>
    <desc>Created with Sketch.</desc>
    <defs></defs>
    <g id="Artboard-Copy" stroke="none" stroke-width="1" fill="none" fill-rule="evenodd">
        <path d="M261.644719,302.286672 L751.988297,302.286672 C838.504518,462.738636 892.584237,572.487582 914.227454,631.533511 C938.019402,696.441501 951.06957,770.836004 953.377957,854.717018 L57.8775506,854.717018 C67.4472408,796.678814 84.1059809,743.919726 107.853771,696.439752 C131.601561,648.959778 164.221493,599.877809 205.713567,549.193846 L779.173965,542.964617 C779.173965,530.620035 765.01405,502.535882 736.69422,458.712158 C708.374391,414.888434 687.842825,387.990489 675.099523,378.018323 C655.332637,370.933084 602.938735,365.810338 517.917818,362.650085 C432.8969,359.489833 347.472534,359.489833 261.644719,362.650085 L261.644719,302.286672 Z M289.25282,626.687865 C254.03071,653.272959 224.913361,678.361933 201.90077,701.954788 C178.88818,725.547643 153.85067,755.979048 126.788241,793.249004 L906.034332,793.249004 C892.816321,760.639212 877.094446,730.207807 858.868707,701.954788 C840.642968,673.701769 819.282888,646.64979 794.788466,620.79885 C704.41734,613.124169 614.596207,609.806791 525.325068,610.846716 C436.053929,611.88664 357.36318,617.167023 289.25282,626.687865 Z" id="Combined-Shape" fill="#000000" fill-rule="nonzero"></path>
        <polygon id="Path-4" fill="#000000" fill-rule="nonzero" points="398.371818 689.089352 432.237834 689.089352 432.237834 725.406616 398.371818 725.406616"></polygon>
        <polygon id="Path-5" fill="#000000" fill-rule="nonzero" points="522.853755 682.394401 522.853755 721.316743 557.846744 721.316743 557.846744 682.394401"></polygon>
        <polygon id="Path-6" fill="#000000" fill-rule="nonzero" points="645.660283 685.782006 645.660283 722.851699 686.408521 722.851699 686.408521 685.782006"></polygon>
    </g>
</svg>