<svg width="339.5" height="238.86" viewBox="0 0 339.502 238.856" xmlns="http://www.w3.org/2000/svg"><g fill-rule="evenodd"><path d="M287.79 76.797c6.652 3.978 14.127 9.158 12.96 18.24-.629 4.889-7.81 10.566-10.561 14.88-.993 1.558-.482 2.719-1.439 3.36-3.419 2.29-8.347.11-11.521-.48l-.84-.72-1.08.24c-1.562-1.168-4.62-3.729-6.24-1.92l-1.359.08-.08 1.36c-5.52-3.089-11.532-10.219-16.32-11.52l-2.72.64-.64 2.72h-.48l.24-2.24-2.16-.64c.253-1.667 1.3-2.54 1.92-3.84l1.84.08 1.04-1.52c2.45-.195 1.729-7.488 2.88-10.56l1.338.446.103-1.406c3.84.96 6.13 3.47 6.72 7.68l-.24 1.2 1.2-.24c3.279 3.414 5.611-2.517 8.64-6.72 3.008-4.174 7.877-7.897 3.36-9.6l.24-1.2-1.2-.24c-.55-1.531-2.818-1.342-3.84-2.4l1.2-1.2-1.2-1.2c1.312-2.048 2.443-4.276 5.76-4.32 1.111-.521-2.346-1.96-.479-3.36 1.019-.962 2.139.682 3.359.96 1.509-1.663-2.504-3.103-.96-4.8 1.325-1.423 3.642 1.11 4.32-.96l1.724 1.462 1.156-1.942c2.721.32 3.89 2.191 5.28 3.84l-1.44 1.68-.479 2.16c-1.316.316-2.756-3.141-3.36-.48l-2.32.56-.56 2.32c-2.114-.14-3.18-3.841-5.28-2.4.428.213.858.421.96.96l-.72 1.392 1.2 1.008v.96l-2.16-.24.24 2.16c-3.45 2.765 1.257 3.2 4.319 3.36l1.681-.24.239-1.68c2.47.571 2.858 3.221 5.28 3.84l-.24.72.72-.243zm-3.84 25.923c.252 4.868-9.755 1.477-11.04-.96 6.573 11.165 25.747.088 19.199-11.52 1.887 4.637-1.232 13.029-3.359 8.16l.239-2.16-2.159-.24c-.437-2.938-2.663 1.481-5.28 1.92-.945.158-1.407-.624-1.92-.48-1.12.314-1.371 2.233-2.88.48 1.083 1.258 1.796 1.676 5.76 1.44l-.24 2.091 1.68 1.27zm-22.08 2.88c3.138-.715.351-7.436-1.44-7.2-4.28.561-2.28 8.05 1.44 7.2z"/><path d="M276.51 120.24l.24 1.2c-3.52.801-4.495 4.146-6.721 6.24l-.84-1.32-1.56-.12c-1.531.411-1.484-.756-2.4-.96l.08-1.04-1.04.08c.049-1.87 4.167-4.255 1.92-5.28-1.728 3.393-3.999 6.241-6.239 9.12l-.433-.912-1.008-.048c-.404-3.644-8.029 5.809-7.68 7.68.483 2.591 4.014 1.187 4.8 3.841l-1.92 1.439 1.92 1.44c-.179 1.581-1.122 2.398-1.92 3.359l-1.521-1.359-1.84.88c-4.182-5.056-8.253-2.156-11.52 1.92l-1.681-.24-.239 1.68c-1.582-.178-2.398-1.121-3.36-1.92l.986-.773-.507-1.146c2.852-3.869 5.591-7.85 8.641-11.52l2.16.24-.24-2.16c5.6-5.441 9.86-12.22 13.92-19.2l1.68-1.2 1.2-1.68c5.314 3.165 9.365 7.595 14.88 10.56l.24 1.2zM252.99 223.84l.24 2.24c-24.574 2.201-43.479 5.538-67.68 7.68l.24-2.159-2.16.239c-.979-3.182.886-9.205-1.92-10.56l.24-1.44-.24-1.439c1.973-1.374-3.048-6.084-5.28-6.72-2.75-.784-4.312.965-6.24-.48-1.763-1.321-1.458-5.076-2.88-7.2-6.841-10.217-31.812-9.333-47.04-7.2l.069-2.194-.548-2.125c33.77-9.541 74.846-16.315 115.68-21.12 5.609-.66 15.105-2.764 16.8-.48.226.304 1.203 2.884.48 4.32-1.198 2.38-5.624.384-8.16 1.44-2.053.854-2.627 3.245-4.32 4.319-3.48 2.21-8.003 1.248-8.64 3.84-.8 3.255 10.207 11.381 12 13.921.939 1.331.918 3.008 1.92 4.319 1.457 1.907 5.354 2.506 4.32 5.76h-2.4l1.44 1.921c-.648 1.111-3.61-.091-3.841 1.439 2.776.376 4.104-.696 6.721-.479l.624 1.68 1.775-.24c-.264 3.944 1.418 5.942.96 10.08l-2.15.64zm-42.96-8.32c-6.13.697-12.632 1.303-18.72 2.399-1.314.237-3.764.273-4.32 1.92 13.171-2.303 31.723-4.197 46.561-6.239 1.867-.257 4.797 1.077 5.76-1.44-10.93 1.59-19.11 2.2-29.28 3.36zM5.791 234.67l.24 1.488c-5.057 1.268-6.752-8.474-5.76-13.439.696-3.484 5.221-8.201 8.16-12.48 3.348-4.877 6.664-9.359 8.64-12l.979 1.089 1.421.352c-.078.558.106.854.48.96l1.052 2.012L22.831 204c-5.188 6.173-11.485 11.235-16.32 17.76l-.24.721.24.72h-.48c.595 3.245.244 7.437.96 10.56l-1.2.91zM45.63 116.4l-1.2 1.68c-3.202-4.158-6.393-8.327-7.68-14.4l1.824-.384 1.056-1.536c1.538.222 1.692 1.828 3.36 1.92l.912 1.2 1.488-.24c-1.124 4.362 1.07 6.894 1.92 10.56l-1.68 1.2zM42.15 83.877l-2.04.12c-1.54-1.015 2.859-3.165 2.88-3.84.057-1.887-4.63-3.574-5.76-5.28-2.725-4.114-7.066-24.509-.48-32.16 10.336-12.009 37.477-6.595 54.24-7.2 19.617-.708 36.6-8.146 55.2-9.12 12.775-.669 22.539 1.182 34.56.48 8.856-.517 18.832-1.027 24.479-2.4.534-.13 1.082-1.303 1.44-1.44 6.143-2.35 24.119-5.27 31.2-2.4 8.393 3.402 14.567 18.066 12.96 30.24-.297 2.244-1.449 4.275-2.4 6.24-.88 1.818-3.905 5.576-1.92 6.72l-.353 1.765.832 1.595c-5.08 2.656 3.125 11.163 2.4 19.68l-2.012-.056-.389 1.976c-3.31-1.17-6.647-2.312-9.119-4.32l.239-2.092-1.68-1.269c.366-4.686-1.131-7.509-1.92-11.04-7.719 6.203-24.32 2.299-38.4 2.88-18.113.748-37.759 8.366-56.16 9.6-10.78.723-20.686.072-30.72-.48-15.051-.828-32.47 6.382-44.64 7.68-6.044.645-7.97-.264-9.6-3.84l.24-1.68-1.68.24c-2.788-.068-2.634 2.806-4.32 3.84l-1.026-1.113-1.375.633c-1.999-.241-2.801-1.679-4.8-1.92l.121-2.039zm153.96-48.359c-19.935 2.804-43.04-2.11-66.24 2.88-11.651 2.506-21.583 5.503-32.16 6.72-10.046 1.155-20.687-1.031-33.12-.96-7.176.042-13.414.66-15.36 4.8-2.069 4.401.878 11.932 5.28 12.96 2.997.7 9.362-1.237 14.4-2.4 13.334-3.077 31.896-3.84 43.68-3.84 10.763 0 20.378-.411 30.72-1.92 15.171-2.214 26.887-5.799 41.28-6.72 4.698-.301 9.663-.523 13.92-.48 12.147.125 41.092 5.767 41.76-8.64.407-8.776-7.206-8.682-15.84-7.68-9.76 1.131-19.26 4.005-28.32 5.28zM45.39 74.397c-2.526-8.195-.806-23.192-6.72-26.4 5.498 6.273 2.35 18.665 6.72 26.4zm188.64-12c-16.419 4.936-33.704.326-52.8 2.88-7.314.979-13.956 3.694-21.12 4.8-7.475 1.154-15.29 2.84-23.04 3.36-7.363.494-14.793-.37-22.56-.48-17.327-.246-34.314 3.289-48.48 8.64 8.96-.324 17.142-3.885 26.4-4.8 19.917-1.968 42.129.935 60.96-2.88 13.059-2.646 29.195-6.327 45.6-6.72 12.739-.305 27.304 2.545 36.961-4.32-.43-1.289-1.02-.75-1.92-.48zM298.35 31.438l-1.92.24c-.142-.979-1.299-.941-1.44-1.92l1.44-.96.96-1.44c5.844 1.996 10.691 4.988 13.44 10.08l-1.2 1.68 1.68 1.2c-.067 1.373-2.002.878-3.359.96l-.926-.377-.515.857c-2.429-3.491-5.581-6.258-9.12-8.64l.97-1.68zM300.67 19.438l-1.36-1.68c3.218-.017 5.317-7.083 8.16-7.68 1.721-.361 3.449 2.725 6.24 2.4 1.406-.164 7.833-5.963 9.6-7.2 4.414-3.09 11.261-8.728 13.44-2.4.971 2.818-.929.769.96 2.4 5.074 4.383-1.785 6.397-6.24 9.12-2.434 1.487-6.962 3.772-7.68 5.28-.666 1.397 2.568 4.156-1.44 6.24h-2.399l-1.44 1.92c-1.558-1.802-3.319-3.401-4.8-5.28l.72-1.86-.24-1.98c.985-.935 1.576-2.264 2.4-3.36-2.523-1.436-6.484-4.128-6.72.96h-2.4v2.4c-1.094.659-1.805-1.237-1.92 0l-1.44 1.68-.479 2.16c-1.412-.508-3.18-.66-4.32-1.44l1.36-1.68zM133.95 142.2l-1.2-.6c-.827-.557-7.211-3.549-9.12-3.36-2.025.2-3.891 2.65-5.76 2.88-17.506 2.154-13.85-24.21 2.88-18.24l-.857.515.377.926c-.312.488-1.104.496-.96 1.439 2.059-.884 21.592 13.67 22.56 7.2-.022.146-.749-.231-.48-.479l.377-.926-.857-.515c7.097-3.986 16.179.169 16.32 7.681l-.24.72.24.72c-1.652 7.732 7.724 4.437 11.04 7.2l-1.243 1.331 1.724.589c1.091 2.233-2.217 3.73-4.32 4.32-.235 1.515.865 1.694.48 3.359-6.869 1.056-16.785 1.941-26.88 2.4-15.456.702-32.544 3.224-37.92-6.72l.24-.881-.72-.56c8.525-5.968 24.99-3.356 34.56-7.68-.133.06-.342-.048-.48 0l.24-1.32zm9.36 7.56c5.554-.205.142-11.378 3.36-13.92-1.357.397-1.244-.676-2.4-.479.98 4.36-.76 9.67-.96 14.4zm1.92 2.4c-.369-3.025-4.136-.563-5.76-1.439-1.923-1.039.706-3.062-1.92-2.881-2.52 3.44 3.74 4.36 7.68 4.32zM182.21 134.59l.458-1.156c3.114-.555 3.416 1.703 5.76 1.92l-.24 1.32 1.2.6c4.197 4.747 9.513 14.19-2.88 13.44l.24-1.681-1.681.24c.074-1.194-.754-1.486-.96-2.4l.24-1.68-1.68.24c-1.286-2.555.672-8.353-1.44-10.08l.98-.76zM203.31 136.32l-1.439-1.92c1.498-.741 3.085-1.395 4.319-2.4l2.054.827 1.307-1.787c2.637 1.204 4.268 3.413 5.28 6.24l-.446 1.337 1.406.104c-.429 3.091-2.523 4.517-2.4 8.159l-1.92-.239-.96 1.68c-3.866-1.488-6.772-3.656-7.68-6.72-.567-1.915-3.848-2.561-1.92-5.28h2.4z"/><path d="M231.6 93.357l-1.886.24c-.837-3.384-.062-4.722 2.399-5.76l1.244 1.724 2.116.196c-.43 1.97-1.226 3.575-2.4 4.8l-1.47-1.2zM81.63 154.32l1.2-1.2c2.564 1.916 3.803 5.157 4.8 8.64l-1.406.104.446 1.337c-3.229 1.731-8.102 1.818-10.56 4.32l-1.68-.24-.24 1.68c-1.802-.878-3.543.409-5.76.48l-.12-1.561-1.32-.84c.169-.63.845-.755.96-1.439-.697-.263-2.481.561-2.4-.48l1.284-1.45-.324-1.91c2.972-3.665 13.981-1.592 13.44-7.199l1.68-.24zM218.43 143.76l-1.68-.239c.665-3.176 2.37-5.31 3.84-7.681l1.611.721 1.749-.24c.169.631.845.755.96 1.439l-1.681 1.2 1.681 1.2c-.142.979-1.299.941-1.44 1.92l-1.68-.24-.24 1.681c-.979.141-.941 1.299-1.92 1.439l-1.2-1.2zM32.43 189.6l-1.92-1.44c5.703-6.938 11.509-13.771 19.68-18.24l.384 1.824 1.536 1.056c-.091.39-.481.479-.48.96l-.757 1.606 1.237 1.274c-6.505 4.535-12.292 9.788-18.24 14.88l-1.44-1.92z"/><g fill="none" stroke="#000" stroke-linecap="round"><path d="M274.11 115.44c.299 1.624 4.773 3.398 2.4 4.8" stroke-width="1.697"/><path d="M253.47 165.84c8.023 12.44 5.926 28.655 9.12 42.721" stroke-width="3.255"/><path d="M262.59 208.56c.131.354.188.658.24.96" stroke-width="3.79"/><path d="M262.83 209.52c3.56 10.556 2.345 16.051-9.841 14.319" stroke-width="2.855"/><path d="M14.764 235.69c-2.961.374-6.208-.01-8.974-1.019" stroke-width="2.41"/><path d="M18.049 199.33c13.448-23.683 36.253-40.223 62.656-46.346" stroke-width="2.181"/><path d="M80.705 152.98c-9.81-13.731-25.034-22.957-35.074-36.583" stroke-width="2.51"/><path d="M38.574 103.29c-2.941-6.189-.992-14.558 3.576-19.416" stroke-width="2.897"/><path d="M246.16 65.602c3.084-3.186 10.347-4.875 12.973-.525" stroke-width="1.454"/><path d="M259.13 65.077c4.222 1.523 7.375 5.18 11.62 6.2" stroke-width="3.192"/><path d="M286.33 53.591c-.094-1.979-2.661-3.047-2.411-4.933 1.866-.486 3.854.511 5.663-.478" stroke-width="1.814"/><path d="M289.58 48.181c-.303-1.885-2.626-3.188-2.342-5.003 1.8-.283 3.778.296 5.53-.683" stroke-width="2.084"/><path d="M292.77 42.494c-.216-1.793-2.197-2.768-2.255-4.593 1.369-1.254 3.89.301 5.561-1.042" stroke-width="2.032"/><path d="M296.08 36.858c-.371-1.638-2.831-2.598-2.15-4.423 1.294-.782 3.144.189 4.423-.998" stroke-width="2.425"/><path d="M296.29 26.157c-.281-1.204.135-2.566 1.201-3.253" stroke-width="2.302"/><path d="M297.49 22.904c-.169-1.887 1.243-3.522 3.183-3.466" stroke-width="2.523"/><path d="M312.99 37.677c-.653 1.255-2.074 1.504-3.359 1.44" stroke-width="2.234"/><path d="M286.94 72.456c1.378 1.639 2.021 2.974.131 4.582" stroke-width="2.236"/><path d="M314.43 20.697c-2.555-.948-5.073-2.37-6.96-4.38" stroke-width="3.291"/><path d="M318.27 32.109c3.136-.503 2.546-4.04 1.681-6.192" stroke-width="2.729"/><path d="M297.49 22.904c6.983 2.005 13.818 6.671 17.354 13.128" stroke-width="2.823"/><path d="M314.84 36.032c2.252.536 3.92-1.853 3.429-3.922" stroke-width="2.483"/><path d="M318.27 32.109c-3.719-4.987-8.538-9.015-14.16-11.712" stroke-width="4.259"/><path d="M312.99 37.677c.846-.176 1.389-.98 1.852-1.646" stroke-width="2.416"/><path d="M296.29 26.157c7.08.334 12.751 6.048 16.703 11.52" stroke-width="1.036"/><path d="M296.29 26.157c-.176.869-.252 1.998.144 2.64" stroke-width="2.722"/><path d="M304.08 44.024c2.444 1.935 4.638-.81 2.941-3.124" stroke-width="2.176"/><path d="M300.43 49.117c4.625 2.63 3.749-2.053 3.653-5.093" stroke-width="2.358"/><path d="M304.08 44.024c-2.082-3.008-5.045-5.112-8.006-7.166" stroke-width="4.749"/><path d="M296.92 53.966c5.054 3.961 4.199-1.404 3.513-4.849" stroke-width="2.059"/><path d="M300.43 49.117c-1.614-3.01-5.045-4.52-7.658-6.623" stroke-width="4.825"/><path d="M294.18 59.714c5.626 3.223 2.946-2.749 2.734-5.748" stroke-width="2.004"/><path d="M296.92 53.966c-2.113-2.247-4.605-4.267-7.334-5.786" stroke-width="4.754"/><path d="M291.15 65.037c4.753 2.565 3.228-2.441 3.033-5.323" stroke-width="2.549"/><path d="M294.18 59.714c-2.223-2.486-5.009-4.445-7.852-6.123" stroke-width="4.656"/><path d="M286.33 53.591c-1.623 1.259-4.04-.837-5.312.838.804 1.511 2.219 2.77 2.255 4.629" stroke-width="1.864"/><path d="M246.16 65.602c1.328.643 2.296 1.846 3.713 2.315" stroke-width="1.67"/><path d="M249.87 67.917c2.679-2.19 6.096-2.157 9.26-2.84" stroke-width="2.159"/><path d="M287.53 69.896c1.652.095 3.566 2.542 4.966.586-.308-1.934-2.303-3.265-1.35-5.444" stroke-width="1.885"/><path d="M291.15 65.037c-.92-.851-1.669-1.934-2.88-2.4" stroke-width="4.412"/><path d="M286.94 72.456c.127-.703.332-1.568.595-2.56" stroke-width="3.461"/><path d="M287.53 69.896c-1.443-2.058-3.728-3.18-5.424-5.018" stroke-width="4.468"/><path d="M249.87 67.917c-.183 3.308 3.433 5.005 3.154 8.332" stroke-width="2.212"/><path d="M253.02 76.249c3.94 1.081 7.787 6.005 9.807 3.736 2.127-2.391 3.775-.756 6.376.823" stroke-width="1.375"/><path d="M269.21 80.809c2.227-1.378 3.13-4.283 5.383-5.691" stroke-width="1.514"/><path d="M247.4 91.575c1.988 1.141.854 3.744 1.908 5.462" stroke-width="2.687"/><path d="M286.94 72.456c-4.234.032-6.323-4.98-10.429-5.306" stroke-width="1.335"/><path d="M86.053 151.37c15.588-4.734 31.943-6.189 47.897-9.172" stroke-width="1.713"/><path d="M173.71 138.08c2.317-1.963 5.257-4.85 8.502-3.483" stroke-width="1.83"/><path d="M188.19 136.68c4.879-.877 10.369-2.31 15.12-.36" stroke-width="1.908"/><path d="M208.24 132.82c4.261-14.258 15.714-26.258 23.353-39.467" stroke-width="2.879"/><path d="M235.65 86.277c.217-1.606 1.22-2.893 2.46-3.892" stroke-width="2.769"/><path d="M281.79 74.157c-1.558-2.328-4.163-3.522-6.24-5.28" stroke-width="2.254"/><path d="M269.21 80.809c-1.811 4.541-5.818 7.886-8.058 12.069" stroke-width="1.299"/><path d="M253.02 76.249c-.015 3.026.273 6.313 1.543 9.154" stroke-width="1.571"/><path d="M80.705 152.98c.34.292.659.883.926 1.337" stroke-width="3.36"/><path d="M86.053 151.37C69.944 132.7 31.048 111.56 55.23 84.237" stroke-width="1.966"/><path d="M246.75 91.677l.651-.103" stroke-width="3.89"/><path d="M247.4 91.575c1.2-1.43 1.188-3.32-.023-4.753" stroke-width="2.844"/><path d="M43.902 104.88c-.043-6.273 2.29-11.951 4.302-17.673" stroke-width="2.131"/><path d="M214.38 138.61c10.9-15.209 23.479-30.303 32.366-46.937" stroke-width="1.443"/><path d="M246.75 91.677c-3.913-1.36-7.576-3.29-11.101-5.4" stroke-width="2.534"/><path d="M235.65 86.277c-1.034.881-1.665 2.106-2.296 3.284" stroke-width="3.683"/><path d="M217.16 148.04c.113-1.495.445-3.01 1.272-4.278" stroke-width="2.949"/><path d="M222.2 136.56c2.288-4.661 5.609-8.893 8.796-13.004" stroke-width="2.914"/><path d="M231 123.55c4.833-7.669 10.229-15.752 16.713-22.116" stroke-width="2.879"/><path d="M282.27 101.45c3.043-.512 4.731-3.192 6.72-5.211" stroke-width="3.148"/><path d="M274.11 115.44c-2.628-.87-5.081-2.537-6.399-4.96" stroke-width="1.374"/><path d="M254.02 105.56c2.227 1.246 4.221 2.954 6.167 4.601" stroke-width="4.086"/><path d="M231 123.55c2.369 1.049 4.75 2.141 6.873 3.644" stroke-width="2.092"/><path d="M237.87 127.2h.479" stroke-width="2.893"/><path d="M238.35 127.2a360.738 360.738 0 0 1 15.673-21.641" stroke-width="2.022"/><path d="M254.02 105.56c-1.834-1.507-3.687-2.988-5.433-4.599" stroke-width="4.32"/><path d="M238.35 127.2c1.94 2.106 4.894 3.024 6.48 5.521" stroke-width="2.019"/><path d="M274.11 115.44c.815-1.091 1.841-2.027 2.28-3.36" stroke-width="1.817"/><path d="M141.77 131.55c-7.636-1.219-14.3-6.32-21.875-8.16" stroke-width="1.512"/><path d="M253.71 140.16c8.3 3.145 11.066-8.646 15.479-13.8" stroke-width="2.424"/><path d="M265.31 124.24c-3.573 1.83-4.156 7.681-8.092 8.46-.724-2.138 1.753-3.55 2.3-5.452" stroke-width="1.228"/><path d="M237.87 127.2c-3.051 4.388-6.444 8.477-9.36 12.96" stroke-width="1.632"/><path d="M228.51 140.16c1.247 2.333 3.8 3.759 6.026 4.986" stroke-width="1.707"/><path d="M171.86 147.72c.932-.572 1.921-1.075 2.702-1.855" stroke-width="1.714"/><path d="M174.56 145.87c-.144-3.338 1.744-6.497 4.032-8.832" stroke-width="1.963"/><path d="M174.56 145.87c3.146-.64 7.021.903 9.792-.672" stroke-width="1.516"/><path d="M171.96 148.63c1.638 2.596-4.647 4.708-5.542 6.952-.278.696.677 1.954.393 2.222-2.585 2.437-21.828 2.644-26.924 2.872-11.175.501-31.353 3.379-38.021-2.764-1.148-1.059-4.292-3.778-1.512-6.151" stroke-width="1.333"/><path d="M86.053 151.37c2.103 2.903 8.065 13.323.171 10.491" stroke-width="1.551"/><path d="M186.99 164.16c-1.854-2.05-6.145-.587-10.323-.336-26.771 1.609-56.184 3.619-83.156-.144" stroke-width="1.52"/><path d="M246.38 162.02c2.811.439 3.772 6.16 7.094 3.812" stroke-width="1.545"/><path d="M253.47 165.84c-1.549-5.001-8.115-6.348-9.212-11.445" stroke-width="2.006"/><path d="M244.26 154.39a8.718 8.718 0 0 1-.532-.314" stroke-width="4.212"/><path d="M243.73 154.08c-2.95.911-4.883-2.093-7.684-2.049" stroke-width="2.005"/><path d="M236.04 152.03c-6.178 2.188-14.613 1.547-18.885-3.993" stroke-width="1.709"/><path d="M217.16 148.04c-1.965.717-4.949 1.209-5.688-1.397" stroke-width="1.895"/><path d="M171.79 148.19c.018-.103.041-.281.063-.464" stroke-width="4.386"/><path d="M171.86 147.72c-2.972-3.518 1.595-6.169 1.854-9.647" stroke-width="2.392"/><path d="M173.71 138.08c-5.5-.399-11.191.812-16.72 1.36" stroke-width="1.9"/><path d="M243.73 154.08c-.694-3.749-5.487-4.332-6.576-7.92" stroke-width="1.609"/><path d="M228.51 140.16c-1.808-.131-3.343-1.584-5.28-1.2" stroke-width="1.802"/><path d="M244.26 154.39c3.74-2.218 6.484-6.619 7.932-10.794" stroke-width="2.398"/><path d="M236.04 152.03c-3.701-4.521-9.646-6.672-14.252-10.191" stroke-width="1.756"/><path d="M171.96 148.63c4.229 2.287 10.899 3.062 14.795.411" stroke-width="1.656"/><path d="M171.96 148.63l-.163-.438" stroke-width="4.101"/><path d="M171.79 148.19c-1.591.178-3.216.006-4.766.5" stroke-width="2.028"/><path d="M21.002 202.65c3.735-4.367 7.771-8.59 11.428-13.052" stroke-width="4.638"/><path d="M50.574 171.74c4.776-3.6 10.289-7.291 16.26-8.074" stroke-width="2.851"/><path d="M68.31 167.88c-5.973 2.013-11.455 5.415-17.437 7.486" stroke-width="2.435"/><path d="M6.271 222.48c2.627.452 5.354.438 7.92 1.151" stroke-width="1.877"/><path d="M14.19 223.63c4.476-1.281 9.783 1.85 13.968-.384" stroke-width="1.7"/><path d="M28.158 223.24c-.978-1.255-2.961-.557-3.781-1.965 64.129-36.642 125.42-45.217 195.95-54.045 9.61-1.203 21.722-1.73 26.049-5.211" stroke-width="1.779"/><path d="M246.38 162.02c-.447-5.28-12.076-2.898-17.308-2.412-13.24 1.23-33.016 3.733-42.079 4.545" stroke-width="2.885"/><path d="M186.99 164.16c-30.59 3.812-73.297 10.13-107.08 5.723-2.138-.278-3.978-.274-5.482-2.603" stroke-width="2.511"/><path d="M73.402 210.34c15.093-6.734 30.72-12.08 46.937-15.737" stroke-width="2.881"/><path d="M28.158 223.24c1.472.363 3.012.12 4.512.192l36.48.96c3.05.014 6.074-.075 9.12 0l36.24-.24c22.602-.58 45.112-1.702 67.44-4.32" stroke-width="3.43"/><path d="M262.59 208.56c-5.056-.346-10.599 3.271-15.12.239" stroke-width="1.304"/><path d="M262.83 209.52c-2.845 2.64-8.224.18-10.416 3.84" stroke-width="1.496"/><path d="M14.19 223.63c.099 4.027.644 8.014.574 12.059" stroke-width="2.09"/><path d="M14.764 235.69c45.477 4.223 95.899 3.987 144.62.699 7.56-.51 21.505-1.444 26.41-4.789" stroke-width="2.137"/></g></g></svg>