<?xml version="1.0" standalone="no"?>
<!DOCTYPE svg PUBLIC "-//W3C//DTD SVG 20010904//EN"
 "http://www.w3.org/TR/2001/REC-SVG-20010904/DTD/svg10.dtd">
<svg version="1.0" xmlns="http://www.w3.org/2000/svg"
 width="700.000000pt" height="700.000000pt" viewBox="0 0 700.000000 700.000000"
 preserveAspectRatio="xMidYMid meet">
<metadata>
Created by potrace 1.11, written by Peter Selinger 2001-2013
</metadata>
<g transform="translate(0.000000,700.000000) scale(0.100000,-0.100000)"
fill="#000000" stroke="none">
<path d="M1794 4931 c-2 -2 -4 -96 -4 -207 l0 -203 203 6 c423 13 1335 6 1667
-12 30 -1 118 -6 195 -10 77 -4 156 -8 175 -10 111 -8 218 -17 240 -20 14 -2
68 -9 120 -15 121 -15 205 -34 235 -54 30 -20 144 -155 228 -273 260 -361 510
-811 466 -839 -9 -5 -90 -7 -1249 -19 -327 -3 -732 -8 -900 -10 -168 -2 -611
-7 -985 -11 -374 -4 -702 -7 -729 -8 l-50 -1 -94 -120 c-500 -638 -751 -1154
-891 -1832 -24 -116 -25 -133 -12 -134 9 0 1386 -1 3061 -1 l3045 -1 -1 59
c-2 95 -17 310 -30 424 -3 30 -8 70 -10 89 -2 19 -6 50 -9 70 -3 20 -8 51 -11
70 -41 306 -156 714 -291 1029 -41 97 -62 144 -153 337 -165 351 -484 984
-605 1200 -22 39 -74 137 -198 375 -33 63 -62 117 -64 119 -5 6 -3343 7 -3349
2z m2606 -2116 c113 -4 228 -8 255 -10 28 -1 120 -6 205 -9 85 -4 169 -9 185
-12 17 -2 80 -6 140 -10 61 -4 121 -8 135 -9 14 -2 42 -3 64 -4 33 -1 47 -9
91 -53 56 -57 173 -196 247 -293 54 -73 208 -301 208 -310 0 -4 8 -19 18 -33
34 -48 120 -212 170 -322 56 -123 72 -163 67 -168 -5 -6 -5304 -7 -5310 -1 -4
5 25 44 169 229 244 313 450 520 786 789 63 51 122 98 131 105 8 7 22 13 30
13 8 0 32 3 54 6 22 3 60 8 85 11 25 3 83 10 130 16 47 5 114 12 150 15 73 6
163 14 230 20 25 2 99 7 165 11 66 3 145 7 175 9 30 2 161 7 290 10 129 4 236
8 237 9 5 4 708 -3 893 -9z"/>
<path d="M3579 2335 c-1 0 -2 -60 -3 -132 l-2 -133 118 0 c87 0 118 3 119 13
4 47 3 230 -1 240 -4 9 -38 12 -117 12 -62 0 -114 0 -114 0z"/>
<path d="M4432 2310 c-16 -4 -18 -19 -18 -127 l-1 -123 139 0 c116 0 138 2
139 15 0 8 0 63 1 123 l0 107 -121 5 c-66 3 -129 3 -139 0z"/>
<path d="M2724 2168 l1 -123 109 -3 c64 -2 112 1 115 7 5 8 7 205 2 234 0 4
-52 7 -114 7 l-114 0 1 -122z"/>
</g>
</svg>
